<?xml version="1.0" encoding="utf-8"?>
<!-- Generator: Adobe Illustrator 16.0.0, SVG Export Plug-In . SVG Version: 6.00 Build 0)  -->
<!DOCTYPE svg PUBLIC "-//W3C//DTD SVG 1.1//EN" "http://www.w3.org/Graphics/SVG/1.1/DTD/svg11.dtd">
<svg version="1.1" id="Layer_1" xmlns="http://www.w3.org/2000/svg" xmlns:xlink="http://www.w3.org/1999/xlink" x="0px" y="0px"
	 width="693.24px" height="201.46px" viewBox="0 0 693.24 201.46" enable-background="new 0 0 693.24 201.46" xml:space="preserve">
<path fill="#FFFFFF" d="M73.224,42.36L73.224,42.36v25.912c-4.245-0.796-8.667-1.238-13.088-1.238H24.938v108.862h35.905
	c4.156,0,8.313-0.441,12.381-1.148v24.938c-3.626,0.442-7.34,0.707-11.055,0.707H0V0h24.938v41.829h38.469
	C66.768,41.829,70.04,42.006,73.224,42.36 M276.447,200.393L276.447,200.393V66.768H241.25c-31.836,0-59.34,21.932-59.34,54.386
	c0,32.104,26.796,56.244,58.544,56.244c9.639,0,18.482-2.299,26.619-6.896v25.56c-10.612,3.625-19.986,5.396-27.857,5.396
	c-44.925,0-82.598-34.666-82.598-80.299c0-45.191,36.701-79.327,81.271-79.327h63.143v158.563L276.447,200.393L276.447,200.393z
	 M73.224,199.686L73.224,199.686v-24.938c26.176-5.041,48.374-25.646,48.374-53.592c0-27.857-21.932-47.843-48.374-52.884V42.36
	c11.762,1.238,22.639,4.776,32.721,10.612c23.966,13.884,38.734,40.68,38.734,68.182
	C144.679,162.984,112.931,194.732,73.224,199.686z M459.684,188.542L459.684,188.542c-4.51-4.862-8.575-9.903-10.789-13.531h-83.569
	l82.153-132.917H319.957l0.442,24.85h82.509l-83.04,133.448h139.814L459.684,188.542L459.684,188.542z M459.684,165.639
	L459.684,165.639c-8.575-12.56-13.616-27.771-13.616-44.481c0-16.804,5.041-32.014,13.616-44.572V165.639z M635.314,63.142
	L635.314,63.142c-13,0-23.789,4.51-32.367,13.531c-1.15,1.238-2.211,2.564-3.271,3.891V51.469c4.603-3.007,8.754-5.306,12.562-6.898
	c7.604-3.36,16.008-5.041,25.293-5.041c21.485,0,39.088,8.49,52.707,25.381l-22.285,12.115
	C659.369,67.741,648.49,63.142,635.314,63.142z M459.684,200.393L459.684,200.393h13.707c-4.334-2.828-9.282-7.25-13.707-11.851
	V200.393z M565.893,200.393V66.768H530.7c-31.838,0-59.34,21.932-59.34,54.386c0,32.104,26.795,56.244,58.543,56.244
	c9.639,0,18.479-2.299,26.616-6.896v25.56c-10.61,3.625-19.896,5.396-27.854,5.396c-28.479,0-54.033-13.974-68.98-35.816V76.584
	c14.685-21.225,39.619-34.755,67.652-34.755h63.146v158.563L565.893,200.393L565.893,200.393z"/>
<path fill="#FFFFFF" d="M673.076,178.285L673.076,178.285l-0.267,0.266l-0.266,0.267l-0.176,0.265l-0.271,0.268l-0.178,0.264
	l-0.176,0.268l-0.088,0.267l-0.179,0.354l-0.088,0.266l-0.178,0.354l-0.088,0.268v0.354l-0.088,0.354l-0.09,0.354v0.354v0.354
	v18.307h-8.937v-32.633h8.937v1.681l0.266-0.089l0.266-0.178l0.354-0.178l0.266-0.088l0.271-0.176l0.354-0.09l0.267-0.178
	l0.266-0.088l0.264-0.089l0.355-0.09l0.354-0.177l0.355-0.088l0.354-0.09l0.441-0.088l0.354-0.09l0.355-0.088h0.354l0.355-0.088
	h0.438l0.355-0.09h0.443h0.354h0.355h0.438h0.885h0.89l0.885,0.178l0.883,0.088l0.885,0.178l0.797,0.267l0.795,0.267l0.798,0.266
	l0.795,0.354l0.707,0.442l0.797,0.354l0.707,0.53l0.619,0.44l0.706,0.619l0.619,0.529l2.3,2.389l-7.959,3.715l-1.148-0.973
	l-0.354-0.268l-0.266-0.266l-0.354-0.178l-0.271-0.177l-0.354-0.179l-0.354-0.176l-0.266-0.088l-0.355-0.18l-0.44-0.088
	l-0.355-0.088l-0.354-0.09h-0.441l-0.438-0.088h-0.355h-0.441h-0.44h-0.441l-0.438,0.088h-0.355l-0.44,0.09l-0.355,0.088
	l-0.354,0.088l-0.355,0.18l-0.354,0.088l-0.354,0.176l-0.266,0.179l-0.355,0.177l-0.266,0.178l-0.266,0.178l-0.355,0.266
	L673.076,178.285z M623.465,201.455v-8.313h24.496l0.354-0.089h0.354l0.266-0.088l0.354-0.09l0.266-0.088l0.271-0.09l0.266-0.176
	l0.176-0.178l0.267-0.266l0.178-0.179l0.088-0.176l0.088-0.179l0.088-0.178l0.091-0.178v-0.176v-0.268v-0.265v-0.179l-0.091-0.176
	l-0.088-0.178l-0.088-0.178l-0.088-0.178l-0.178-0.266l-0.178-0.177l-0.265-0.178l-0.266-0.179l-0.271-0.088l-0.266-0.088
	l-0.266-0.088l-0.354-0.09h-0.354l-0.355-0.09h-13.797h-0.707h-0.707l-0.707-0.088l-0.707-0.178l-0.709-0.176l-0.619-0.179
	l-0.707-0.267l-0.528-0.266l-0.619-0.266l-0.619-0.354l-0.529-0.441l-0.53-0.441l-0.439-0.441l-0.443-0.442l-0.438-0.528
	l-0.441-0.619l-0.178-0.267l-0.178-0.267l-0.179-0.354L624,182.513l-0.088-0.354l-0.178-0.267l-0.088-0.354l-0.088-0.266
	l-0.091-0.354l-0.09-0.354l-0.088-0.267l-0.088-0.354v-0.354v-0.354l-0.088-0.267v-0.354v-0.531l0.088-0.441l0.088-0.529
	l0.088-0.441l0.09-0.53l0.179-0.44l0.178-0.441l0.176-0.443l0.178-0.441l0.269-0.44l0.266-0.44l0.267-0.354l0.354-0.442l0.355-0.354
	l0.354-0.354l0.354-0.355l0.44-0.354l0.443-0.267l0.354-0.354l0.441-0.266l0.44-0.266l0.529-0.178l0.443-0.267l0.438-0.177
	l0.531-0.178l0.441-0.088l0.528-0.178l0.529-0.088l0.531-0.09h0.528l0.529-0.088h0.531h24.938v8.225h-24.762h-0.266l-0.269,0.089
	h-0.266l-0.176,0.089l-0.181,0.088l-0.176,0.088l-0.178,0.09l-0.178,0.177l-0.177,0.09l-0.09,0.177L632.12,178v0.178l-0.088,0.09
	v0.088v0.178l-0.09,0.088l0.09,0.178v0.177v0.09l0.088,0.177l0.088,0.09l0.09,0.176l0.09,0.09l0.177,0.176l0.178,0.09l0.178,0.09
	l0.178,0.176h0.179l0.176,0.088l0.266,0.09h0.269h0.266h14.063h0.795l0.797,0.089l0.797,0.088l0.795,0.179l0.795,0.176l0.709,0.178
	l0.707,0.266l0.619,0.354l0.707,0.354l0.619,0.354l0.528,0.441l0.619,0.442l0.529,0.53l0.443,0.529l0.526,0.619l0.443,0.619
	l0.176,0.266l0.178,0.354l0.181,0.266l0.176,0.354l0.088,0.355l0.178,0.264l0.088,0.354l0.09,0.354l0.091,0.354l0.088,0.266
	l0.088,0.354l0.09,0.354v0.354l0.088,0.354v0.354v0.354v0.619l-0.088,0.529l-0.09,0.531l-0.088,0.529l-0.088,0.531l-0.179,0.528
	l-0.178,0.53l-0.266,0.529l-0.267,0.441l-0.268,0.443l-0.266,0.529l-0.355,0.44l-0.354,0.354l-0.355,0.441l-0.438,0.354
	l-0.443,0.354l-0.441,0.354l-0.442,0.354l-0.529,0.268l-0.438,0.354l-0.529,0.178l-0.531,0.266l-0.531,0.265l-0.528,0.179
	l-0.531,0.178l-0.531,0.088l-0.619,0.178l-0.524,0.088l-0.619,0.088h-0.531l-0.619,0.09h-0.619L623.465,201.455L623.465,201.455z"/>
<path fill="#FFFFFF" d="M625.232,199.686v-4.862h22.729c1.326,0,2.477-0.355,3.449-1.15c0.972-0.795,1.414-1.768,1.414-2.918
	c0-1.148-0.441-2.123-1.414-2.918c-0.885-0.797-2.035-1.148-3.449-1.148h-13.797c-3.537,0-6.277-1.326-8.047-3.979
	c-0.795-1.237-1.238-2.653-1.238-4.067c0-2.211,0.885-4.067,2.652-5.66c1.856-1.592,3.979-2.39,6.545-2.39h23.17v4.777h-22.992
	c-1.15,0-2.035,0.264-2.83,0.973c-0.797,0.619-1.15,1.414-1.15,2.3c0,0.974,0.355,1.769,1.15,2.478
	c0.795,0.619,1.68,0.973,2.83,0.973h14.061c4.068,0,6.986,1.414,8.937,4.422c0.885,1.326,1.326,2.83,1.326,4.334
	c0,2.652-0.978,4.773-3.006,6.365c-2.123,1.682-4.604,2.479-7.521,2.479h-22.813v-0.004h-0.004V199.686z"/>
<path fill="#FFFFFF" d="M678.736,174.48c-2.742,0-5.041,0.887-6.812,2.479c-1.854,1.681-2.739,3.713-2.739,6.189v16.537h-5.484
	v-29.096h5.484v3.009c1.768-1.238,3.358-2.033,4.686-2.478c1.594-0.619,3.361-0.973,5.307-0.973c4.515,0,8.229,1.592,11.06,4.688
	l-4.689,2.211C683.777,175.367,681.477,174.48,678.736,174.48"/>
</svg>
